<?xml version="1.0" encoding="utf-8"?>
<!-- Generator: Adobe Illustrator 22.0.1, SVG Export Plug-In . SVG Version: 6.00 Build 0)  -->
<svg version="1.1" id="Слой_1" xmlns="http://www.w3.org/2000/svg" xmlns:xlink="http://www.w3.org/1999/xlink" x="0px" y="0px"
	 viewBox="0 0 800 800" style="enable-background:new 0 0 800 800;" xml:space="preserve">
<style type="text/css">
	.st0{opacity:0.65;fill:#660016;}
	.st1{fill:#FFFFFF;}
</style>
<path class="st0" d="M798.1,27.4c0.7-0.5,1.3-1.1,1.9-1.7V1.9h-1.9V0h-24.2c-0.6,0.6-1.1,1.2-1.6,1.9H400H27.4
	c-0.5-0.7-1.1-1.3-1.7-1.9H1.9v1.9H0v24.2c0.6,0.6,1.2,1.1,1.9,1.6V400v372.6c-0.7,0.5-1.3,1.1-1.9,1.7v23.8h1.9v1.9h24.2
	c0.6-0.6,1.1-1.2,1.6-1.9H400h372.6c0.5,0.7,1.1,1.3,1.7,1.9h23.8v-1.9h1.9v-24.2c-0.6-0.6-1.2-1.1-1.9-1.6V400V27.4z M716.2,767.8
	c-4-2.2-8.9-3.5-14.1-3.5c-11.1,0-20.5,5.8-23.8,13.9c-2.8-1.3-5.8-1.9-8.9-1.9c-7.8,0-14.4,4-16.9,9.6c-2.1-1-4.5-1.6-6.8-1.6
	c-4.6,0-8.6,1.9-10.9,4.8c-2.3-2.9-6.3-4.8-10.9-4.8c-3.4,0-6.4,1-8.7,2.7c-3.1-4.1-8.7-6.8-15-6.8c-6.3,0-11.8,2.7-14.9,6.7
	c-2.3-1.6-5.3-2.6-8.5-2.6c-4.6,0-8.6,1.9-10.9,4.8c-2.3-2.9-6.3-4.8-10.9-4.8c-2.4,0-4.7,0.5-6.8,1.6c-2.5-5.6-9.1-9.6-16.9-9.6
	c-3.1,0-6.1,0.6-8.9,1.9c-3.3-8-12.7-13.9-23.8-13.9c-5.2,0-10.1,1.3-14.1,3.5c-5.3-7.6-15.5-12.8-27.2-12.8
	c-13,0-24.2,6.4-28.9,15.6c-3.6-1.9-7.6-2.9-11.6-2.9c-6.6,0-12.6,2.6-16.6,6.6v-0.4c-4-3.8-9.7-6.2-16.1-6.2c-4,0-8,1-11.6,2.9
	c-4.7-9.1-15.8-15.6-28.9-15.6c-11.7,0-21.8,5.2-27.2,12.8c-4-2.2-8.9-3.5-14.1-3.5c-11.1,0-20.5,5.8-23.8,13.9
	c-2.8-1.3-5.8-1.9-8.9-1.9c-7.8,0-14.4,4-16.9,9.6c-2.1-1-4.5-1.6-6.8-1.6c-4.6,0-8.6,1.9-10.9,4.8c-2.3-2.9-6.3-4.8-10.9-4.8
	c-3.4,0-6.4,1-8.7,2.7c-3.1-4.1-8.7-6.8-15-6.8c-6.3,0-11.8,2.7-14.9,6.7c-2.3-1.6-5.3-2.6-8.5-2.6c-4.6,0-8.6,1.9-10.9,4.8
	c-2.3-2.9-6.3-4.8-10.9-4.8c-2.4,0-4.7,0.5-6.8,1.6c-2.5-5.6-9.1-9.6-16.9-9.6c-3.1,0-6.1,0.6-8.9,1.9c-3.3-8-12.7-13.9-23.8-13.9
	c-5.2,0-10.1,1.3-14.1,3.5C78.9,760.2,68.7,755,57,755c-5.4,0-10.6,1.1-15,3.1c1.9-4.4,3-9.4,3-14.7c0-11.7-5.2-21.8-12.8-27.2
	c2.2-4,3.5-8.9,3.5-14.1c0-11.1-5.8-20.5-13.9-23.8c1.3-2.8,1.9-5.8,1.9-8.9c0-7.8-4-14.4-9.6-16.9c1-2.1,1.6-4.5,1.6-6.8
	c0-4.6-1.9-8.6-4.8-10.9c2.9-2.3,4.8-6.3,4.8-10.9c0-3.4-1-6.4-2.7-8.7c4.1-3.1,6.8-8.7,6.8-15c0-6.3-2.7-11.8-6.7-14.9
	c1.6-2.3,2.6-5.3,2.6-8.5c0-4.6-1.9-8.6-4.8-10.9c2.9-2.3,4.8-6.3,4.8-10.9c0-2.4-0.5-4.7-1.6-6.8c5.6-2.5,9.6-9.1,9.6-16.9
	c0-3.1-0.6-6.1-1.9-8.9c8-3.3,13.9-12.7,13.9-23.8c0-5.2-1.3-10.1-3.5-14.1C39.8,478.9,45,468.7,45,457c0-13-6.4-24.2-15.6-28.9
	c1.9-3.6,2.9-7.6,2.9-11.6c0-6.6-2.6-12.6-6.6-16.6h0.4c3.8-4,6.2-9.7,6.2-16.1c0-4-1-8-2.9-11.6c9.1-4.7,15.6-15.8,15.6-28.9
	c0-11.7-5.2-21.8-12.8-27.2c2.2-4,3.5-8.9,3.5-14.1c0-11.1-5.8-20.5-13.9-23.8c1.3-2.8,1.9-5.8,1.9-8.9c0-7.8-4-14.4-9.6-16.9
	c1-2.1,1.6-4.5,1.6-6.8c0-4.6-1.9-8.6-4.8-10.9c2.9-2.3,4.8-6.3,4.8-10.9c0-3.4-1-6.4-2.7-8.7c4.1-3.1,6.8-8.7,6.8-15
	c0-6.3-2.7-11.8-6.7-14.9c1.6-2.3,2.6-5.3,2.6-8.5c0-4.6-1.9-8.6-4.8-10.9c2.9-2.3,4.8-6.3,4.8-10.9c0-2.4-0.5-4.7-1.6-6.8
	c5.6-2.5,9.6-9.1,9.6-16.9c0-3.1-0.6-6.1-1.9-8.9c8-3.3,13.9-12.7,13.9-23.8c0-5.2-1.3-10.1-3.5-14.1C39.8,78.9,45,68.7,45,57
	c0-5.4-1.1-10.6-3.1-15c4.4,1.9,9.4,3,14.7,3c11.7,0,21.8-5.2,27.2-12.8c4,2.2,8.9,3.5,14.1,3.5c11.1,0,20.5-5.8,23.8-13.9
	c2.8,1.3,5.8,1.9,8.9,1.9c7.8,0,14.4-4,16.9-9.6c2.1,1,4.5,1.6,6.8,1.6c4.6,0,8.6-1.9,10.9-4.8c2.3,2.9,6.3,4.8,10.9,4.8
	c3.4,0,6.4-1,8.7-2.7c3.1,4.1,8.7,6.8,15,6.8c6.3,0,11.8-2.7,14.9-6.7c2.3,1.6,5.3,2.6,8.5,2.6c4.6,0,8.6-1.9,10.9-4.8
	c2.3,2.9,6.3,4.8,10.9,4.8c2.4,0,4.7-0.5,6.8-1.6c2.5,5.6,9.1,9.6,16.9,9.6c3.1,0,6.1-0.6,8.9-1.9c3.3,8,12.7,13.9,23.8,13.9
	c5.2,0,10.1-1.3,14.1-3.5C321.1,39.8,331.3,45,343,45c13,0,24.2-6.4,28.9-15.6c3.6,1.9,7.6,2.9,11.6,2.9c6.6,0,12.6-2.6,16.6-6.6
	v0.4c4,3.8,9.7,6.2,16.1,6.2c4,0,8-1,11.6-2.9c4.7,9.1,15.8,15.6,28.9,15.6c11.7,0,21.8-5.2,27.2-12.8c4,2.2,8.9,3.5,14.1,3.5
	c11.1,0,20.5-5.8,23.8-13.9c2.8,1.3,5.8,1.9,8.9,1.9c7.8,0,14.4-4,16.9-9.6c2.1,1,4.5,1.6,6.8,1.6c4.6,0,8.6-1.9,10.9-4.8
	c2.3,2.9,6.3,4.8,10.9,4.8c3.4,0,6.4-1,8.7-2.7c3.1,4.1,8.7,6.8,15,6.8c6.3,0,11.8-2.7,14.9-6.7c2.3,1.6,5.3,2.6,8.5,2.6
	c4.6,0,8.6-1.9,10.9-4.8c2.3,2.9,6.3,4.8,10.9,4.8c2.4,0,4.7-0.5,6.8-1.6c2.5,5.6,9.1,9.6,16.9,9.6c3.1,0,6.1-0.6,8.9-1.9
	c3.3,8,12.7,13.9,23.8,13.9c5.2,0,10.1-1.3,14.1-3.5C721.1,39.8,731.3,45,743,45c5.4,0,10.6-1.1,15-3.1c-1.9,4.4-3,9.4-3,14.7
	c0,11.7,5.2,21.8,12.8,27.2c-2.2,4-3.5,8.9-3.5,14.1c0,11.1,5.8,20.5,13.9,23.8c-1.3,2.8-1.9,5.8-1.9,8.9c0,7.8,4,14.4,9.6,16.9
	c-1,2.1-1.6,4.5-1.6,6.8c0,4.6,1.9,8.6,4.8,10.9c-2.9,2.3-4.8,6.3-4.8,10.9c0,3.4,1,6.4,2.7,8.7c-4.1,3.1-6.8,8.7-6.8,15
	c0,6.3,2.7,11.8,6.7,14.9c-1.6,2.3-2.6,5.3-2.6,8.5c0,4.6,1.9,8.6,4.8,10.9c-2.9,2.3-4.8,6.3-4.8,10.9c0,2.4,0.5,4.7,1.6,6.8
	c-5.6,2.5-9.6,9.1-9.6,16.9c0,3.1,0.6,6.1,1.9,8.9c-8,3.3-13.9,12.7-13.9,23.8c0,5.2,1.3,10.1,3.5,14.1
	c-7.6,5.3-12.8,15.5-12.8,27.2c0,13,6.4,24.2,15.6,28.9c-1.9,3.6-2.9,7.6-2.9,11.6c0,6.6,2.6,12.6,6.6,16.6h-0.4
	c-3.8,4-6.2,9.7-6.2,16.1c0,4,1,8,2.9,11.6c-9.1,4.7-15.6,15.8-15.6,28.9c0,11.7,5.2,21.8,12.8,27.2c-2.2,4-3.5,8.9-3.5,14.1
	c0,11.1,5.8,20.5,13.9,23.8c-1.3,2.8-1.9,5.8-1.9,8.9c0,7.8,4,14.4,9.6,16.9c-1,2.1-1.6,4.5-1.6,6.8c0,4.6,1.9,8.6,4.8,10.9
	c-2.9,2.3-4.8,6.3-4.8,10.9c0,3.4,1,6.4,2.7,8.7c-4.1,3.1-6.8,8.7-6.8,15c0,6.3,2.7,11.8,6.7,14.9c-1.6,2.3-2.6,5.3-2.6,8.5
	c0,4.6,1.9,8.6,4.8,10.9c-2.9,2.3-4.8,6.3-4.8,10.9c0,2.4,0.5,4.7,1.6,6.8c-5.6,2.5-9.6,9.1-9.6,16.9c0,3.1,0.6,6.1,1.9,8.9
	c-8,3.3-13.9,12.7-13.9,23.8c0,5.2,1.3,10.1,3.5,14.1c-7.6,5.3-12.8,15.5-12.8,27.2c0,5.4,1.1,10.6,3.1,15c-4.4-1.9-9.4-3-14.7-3
	C731.7,755,721.6,760.2,716.2,767.8z"/>
<path class="st1" d="M775.8,0H400H23.8H0v24.2V400v376.2V800h24.2H400h376.2H800v-24.2V400V23.8V0H775.8z M772.4,27.8
	c-0.3,0.2-0.6,0.4-1,0.5c0.2-0.3,0.3-0.5,0.5-0.8C772,27.6,772.2,27.7,772.4,27.8z M27.8,27.6c0.2,0.3,0.4,0.6,0.5,1
	c-0.3-0.2-0.5-0.3-0.8-0.5C27.6,28,27.7,27.8,27.8,27.6z M27.6,772.2c0.3-0.2,0.6-0.4,1-0.5c-0.2,0.3-0.3,0.5-0.5,0.8
	C28,772.4,27.8,772.3,27.6,772.2z M716.2,769.7c-4-2.2-8.9-3.5-14.1-3.5c-11.1,0-20.5,5.8-23.8,13.9c-2.8-1.3-5.8-1.9-8.9-1.9
	c-7.8,0-14.4,4-16.9,9.6c-2.1-1-4.5-1.6-6.8-1.6c-4.6,0-8.6,1.9-10.9,4.8c-2.3-2.9-6.3-4.8-10.9-4.8c-3.4,0-6.4,1-8.7,2.7
	c-3.1-4.1-8.7-6.8-15-6.8c-6.3,0-11.8,2.7-14.9,6.7c-2.3-1.6-5.3-2.6-8.5-2.6c-4.6,0-8.6,1.9-10.9,4.8c-2.3-2.9-6.3-4.8-10.9-4.8
	c-2.4,0-4.7,0.5-6.8,1.6c-2.5-5.6-9.1-9.6-16.9-9.6c-3.1,0-6.1,0.6-8.9,1.9c-3.3-8-12.7-13.9-23.8-13.9c-5.2,0-10.1,1.3-14.1,3.5
	c-5.4-7.6-15.5-12.8-27.2-12.8c-13,0-24.2,6.4-28.9,15.6c-3.6-1.9-7.6-2.9-11.6-2.9c-6.6,0-12.6,2.6-16.6,6.6v-0.4
	c-4-3.8-9.7-6.2-16.1-6.2c-4,0-8,1-11.6,2.9c-4.7-9.1-15.8-15.6-28.9-15.6c-11.7,0-21.8,5.2-27.2,12.8c-4-2.2-8.9-3.5-14.1-3.5
	c-11.1,0-20.5,5.8-23.8,13.9c-2.8-1.3-5.8-1.9-8.9-1.9c-7.8,0-14.4,4-16.9,9.6c-2.1-1-4.5-1.6-6.8-1.6c-4.6,0-8.6,1.9-10.9,4.8
	c-2.3-2.9-6.3-4.8-10.9-4.8c-3.4,0-6.4,1-8.7,2.7c-3.1-4.1-8.7-6.8-15-6.8c-6.3,0-11.8,2.7-14.9,6.7c-2.3-1.6-5.3-2.6-8.5-2.6
	c-4.6,0-8.6,1.9-10.9,4.8c-2.3-2.9-6.3-4.8-10.9-4.8c-2.4,0-4.7,0.5-6.8,1.6c-2.5-5.6-9.1-9.6-16.9-9.6c-3.1,0-6.1,0.6-8.9,1.9
	c-3.3-8-12.7-13.9-23.8-13.9c-5.2,0-10.1,1.3-14.1,3.5c-5.4-7.6-15.5-12.8-27.2-12.8c-7.1,0-13.6,1.9-18.9,5.1
	c3.1-5.2,5-11.6,5-18.6c0-11.7-5.2-21.8-12.8-27.2c2.2-4,3.5-8.9,3.5-14.1c0-11.1-5.8-20.5-13.9-23.8c1.3-2.8,1.9-5.8,1.9-8.9
	c0-7.8-4-14.4-9.6-16.9c1-2.1,1.6-4.5,1.6-6.8c0-4.6-1.9-8.6-4.8-10.9c2.9-2.3,4.8-6.3,4.8-10.9c0-3.4-1-6.4-2.7-8.7
	c4.1-3.1,6.8-8.7,6.8-15c0-6.3-2.7-11.8-6.7-14.9c1.6-2.3,2.6-5.3,2.6-8.5c0-4.6-1.9-8.6-4.8-10.9c2.9-2.3,4.8-6.3,4.8-10.9
	c0-2.4-0.5-4.7-1.6-6.8c5.6-2.5,9.6-9.1,9.6-16.9c0-3.1-0.6-6.1-1.9-8.9c8-3.3,13.9-12.7,13.9-23.8c0-5.2-1.3-10.1-3.5-14.1
	c7.6-5.4,12.8-15.5,12.8-27.2c0-13-6.4-24.2-15.6-28.9c1.9-3.6,2.9-7.6,2.9-11.6c0-6.6-2.6-12.6-6.6-16.6h0.4
	c3.8-4,6.2-9.7,6.2-16.1c0-4-1-8-2.9-11.6c9.1-4.7,15.6-15.8,15.6-28.9c0-11.7-5.2-21.8-12.8-27.2c2.2-4,3.5-8.9,3.5-14.1
	c0-11.1-5.8-20.5-13.9-23.8c1.3-2.8,1.9-5.8,1.9-8.9c0-7.8-4-14.4-9.6-16.9c1-2.1,1.6-4.5,1.6-6.8c0-4.6-1.9-8.6-4.8-10.9
	c2.9-2.3,4.8-6.3,4.8-10.9c0-3.4-1-6.4-2.7-8.7c4.1-3.1,6.8-8.7,6.8-15c0-6.3-2.7-11.8-6.7-14.9c1.6-2.3,2.6-5.3,2.6-8.5
	c0-4.6-1.9-8.6-4.8-10.9c2.9-2.3,4.8-6.3,4.8-10.9c0-2.4-0.5-4.7-1.6-6.8c5.6-2.5,9.6-9.1,9.6-16.9c0-3.1-0.6-6.1-1.9-8.9
	c8-3.3,13.9-12.7,13.9-23.8c0-5.2-1.3-10.1-3.5-14.1C38,78.9,43.1,68.7,43.1,57c0-7.1-1.9-13.6-5.1-18.9c5.2,3.1,11.6,5,18.6,5
	c11.7,0,21.8-5.2,27.2-12.8c4,2.2,8.9,3.5,14.1,3.5c11.1,0,20.5-5.8,23.8-13.9c2.8,1.3,5.8,1.9,8.9,1.9c7.8,0,14.4-4,16.9-9.6
	c2.1,1,4.5,1.6,6.8,1.6c4.6,0,8.6-1.9,10.9-4.8c2.3,2.9,6.3,4.8,10.9,4.8c3.4,0,6.4-1,8.7-2.7c3.1,4.1,8.7,6.8,15,6.8
	c6.3,0,11.8-2.7,14.9-6.7c2.3,1.6,5.3,2.6,8.5,2.6c4.6,0,8.6-1.9,10.9-4.8c2.3,2.9,6.3,4.8,10.9,4.8c2.4,0,4.7-0.5,6.8-1.6
	c2.5,5.6,9.1,9.6,16.9,9.6c3.1,0,6.1-0.6,8.9-1.9c3.3,8,12.7,13.9,23.8,13.9c5.2,0,10.1-1.3,14.1-3.5c5.4,7.6,15.5,12.8,27.2,12.8
	c13,0,24.2-6.4,28.9-15.6c3.6,1.9,7.6,2.9,11.6,2.9c6.6,0,12.6-2.6,16.6-6.6v0.4c4,3.8,9.7,6.2,16.1,6.2c4,0,8-1,11.6-2.9
	c4.7,9.1,15.8,15.6,28.9,15.6c11.7,0,21.8-5.2,27.2-12.8c4,2.2,8.9,3.5,14.1,3.5c11.1,0,20.5-5.8,23.8-13.9c2.8,1.3,5.8,1.9,8.9,1.9
	c7.8,0,14.4-4,16.9-9.6c2.1,1,4.5,1.6,6.8,1.6c4.6,0,8.6-1.9,10.9-4.8c2.3,2.9,6.3,4.8,10.9,4.8c3.4,0,6.4-1,8.7-2.7
	c3.1,4.1,8.7,6.8,15,6.8c6.3,0,11.8-2.7,14.9-6.7c2.3,1.6,5.3,2.6,8.5,2.6c4.6,0,8.6-1.9,10.9-4.8c2.3,2.9,6.3,4.8,10.9,4.8
	c2.4,0,4.7-0.5,6.8-1.6c2.5,5.6,9.1,9.6,16.9,9.6c3.1,0,6.1-0.6,8.9-1.9c3.3,8,12.7,13.9,23.8,13.9c5.2,0,10.1-1.3,14.1-3.5
	c5.4,7.6,15.5,12.8,27.2,12.8c7.1,0,13.6-1.9,18.9-5.1c-3.1,5.2-5,11.6-5,18.6c0,11.7,5.2,21.8,12.8,27.2c-2.2,4-3.5,8.9-3.5,14.1
	c0,11.1,5.8,20.5,13.9,23.8c-1.3,2.8-1.9,5.8-1.9,8.9c0,7.8,4,14.4,9.6,16.9c-1,2.1-1.6,4.5-1.6,6.8c0,4.6,1.9,8.6,4.8,10.9
	c-2.9,2.3-4.8,6.3-4.8,10.9c0,3.4,1,6.4,2.7,8.7c-4.1,3.1-6.8,8.7-6.8,15c0,6.3,2.7,11.8,6.7,14.9c-1.6,2.3-2.6,5.3-2.6,8.5
	c0,4.6,1.9,8.6,4.8,10.9c-2.9,2.3-4.8,6.3-4.8,10.9c0,2.4,0.5,4.7,1.6,6.8c-5.6,2.5-9.6,9.1-9.6,16.9c0,3.1,0.6,6.1,1.9,8.9
	c-8,3.3-13.9,12.7-13.9,23.8c0,5.2,1.3,10.1,3.5,14.1c-7.6,5.4-12.8,15.5-12.8,27.2c0,13,6.4,24.2,15.6,28.9
	c-1.9,3.6-2.9,7.6-2.9,11.6c0,6.6,2.6,12.6,6.6,16.6h-0.4c-3.8,4-6.2,9.7-6.2,16.1c0,4,1,8,2.9,11.6c-9.1,4.7-15.6,15.8-15.6,28.9
	c0,11.7,5.2,21.8,12.8,27.2c-2.2,4-3.5,8.9-3.5,14.1c0,11.1,5.8,20.5,13.9,23.8c-1.3,2.8-1.9,5.8-1.9,8.9c0,7.8,4,14.4,9.6,16.9
	c-1,2.1-1.6,4.5-1.6,6.8c0,4.6,1.9,8.6,4.8,10.9c-2.9,2.3-4.8,6.3-4.8,10.9c0,3.4,1,6.4,2.7,8.7c-4.1,3.1-6.8,8.7-6.8,15
	c0,6.3,2.7,11.8,6.7,14.9c-1.6,2.3-2.6,5.3-2.6,8.5c0,4.6,1.9,8.6,4.8,10.9c-2.9,2.3-4.8,6.3-4.8,10.9c0,2.4,0.5,4.7,1.6,6.8
	c-5.6,2.5-9.6,9.1-9.6,16.9c0,3.1,0.6,6.1,1.9,8.9c-8,3.3-13.9,12.7-13.9,23.8c0,5.2,1.3,10.1,3.5,14.1
	c-7.6,5.4-12.8,15.5-12.8,27.2c0,7.1,1.9,13.6,5.1,18.9c-5.2-3.1-11.6-5-18.6-5C731.7,756.9,721.6,762,716.2,769.7z M772.2,772.4
	c-0.2-0.3-0.4-0.6-0.5-1c0.3,0.2,0.5,0.3,0.8,0.5C772.4,772,772.3,772.2,772.2,772.4z"/>
</svg>
