<?xml version="1.0" encoding="UTF-8"?>
<!DOCTYPE svg PUBLIC "-//W3C//DTD SVG 1.1//EN" "http://www.w3.org/Graphics/SVG/1.1/DTD/svg11.dtd">
<!-- Creator: CorelDRAW X6 -->
<svg xmlns="http://www.w3.org/2000/svg" xml:space="preserve" width="16.1902mm" height="8.6835mm" version="1.1" style="shape-rendering:geometricPrecision; text-rendering:geometricPrecision; image-rendering:optimizeQuality; fill-rule:evenodd; clip-rule:evenodd"
viewBox="0 0 51854 27812"
 xmlns:xlink="http://www.w3.org/1999/xlink">
<style type="text/css">
    <![CDATA[
    .fill-w { fill: white; }
    ]]>
  </style>
 <g id="alex-logo">
  <path class="fill-w"  d="M6976 27702l-6976 0 5471 -27702 9938 0 5471 27702 -6969 0 -909 -4684 -5119 0 -909 4684zm4228 -19810l0 0c5,29 111,53 140,34 29,-19 0,-159 0,-159 0,0 -125,58 -144,20 0,0 0,77 5,106zm-1829 -1964l0 0c34,14 150,29 178,29 29,0 44,-15 58,-53 14,-39 29,-106 68,-106 38,0 304,97 304,97 39,-77 318,-203 318,-203 -14,-29 -613,-184 -704,-198 -92,-14 -111,-14 -145,24 -34,38 -145,270 -150,338 -5,68 38,58 72,72zm-1535 1727l0 0c42,36 78,0 101,-47 24,-48 -30,-315 -30,-315 -131,-60 -178,6 -190,66 -12,59 78,262 119,297zm1316 8826l348 0c-12,54 -22,101 -29,131 -36,155 -238,1535 -238,1535 0,0 -113,-36 -172,47 -60,83 -125,405 -172,488 -48,83 -95,202 -71,298 24,95 618,297 618,297 0,0 0,60 47,178 48,119 690,143 773,143 83,0 71,-71 143,-48 71,24 820,48 987,48 166,0 428,-107 523,-190 95,-83 107,-286 -12,-298 -119,-12 -404,-12 -464,-71 -59,-59 -535,-309 -535,-309 0,-261 -233,-247 -233,-324 0,-77 77,-772 144,-936l234 -989 688 0 -304 -1623 414 -1751c323,-473 58,-3252 126,-3204 68,48 516,70 598,58 386,-58 251,-560 212,-811 -38,-251 -354,-449 -410,-531 -202,-294 -111,-468 -77,-497 34,-29 77,0 121,24 43,24 120,0 120,0 0,0 -10,92 29,159 39,68 357,227 362,188 5,-38 256,-844 265,-864 10,-19 -14,-82 -63,-92 -48,-10 -183,-38 -222,-43 -38,-5 -88,20 -135,38 -227,92 -386,-43 -420,-68 -34,-24 -44,-72 -44,-72 -10,-145 -145,-121 -145,-121 10,-24 -29,-48 -87,-48 -58,0 -116,72 -116,72 -19,-29 -77,-10 -77,-10 0,-20 -39,-48 -92,-39 -53,10 -96,39 -140,39 -43,0 -121,-5 -154,-20 -34,-14 -24,-72 -24,-116 0,-44 68,-44 111,-34 44,10 111,39 188,53 77,14 77,-19 150,-14 72,5 164,24 222,19 58,-5 174,-53 232,-43 58,10 536,188 589,174 53,-14 120,-198 72,-208 -48,-10 -597,-213 -671,-290 -285,-294 -853,-280 -854,-323 -14,-690 -569,-763 -569,-763 -58,-96 -193,-38 -193,-38l-77 -29c0,0 -39,-48 -106,-72 -68,-24 -820,-260 -941,-284 -120,-24 -232,-20 -290,48 -58,68 -309,396 -309,396 0,0 -68,-77 -159,-82 -92,-5 -82,106 -111,246 -29,140 -82,82 -92,24 -10,-58 135,-400 154,-478 19,-78 -96,-106 -96,-106 0,0 -14,-19 24,-145l-145 87c0,0 -68,0 -116,68 -48,68 -10,164 -10,164l-48 251c0,0 -68,58 -87,0 -20,-58 -48,-77 -154,-87 -106,-10 -290,48 -328,29 -39,-19 -97,-83 -204,-59 -107,24 -143,101 -184,286 -42,184 89,274 42,333 -48,59 -101,405 -95,476 6,71 267,89 267,89 0,0 -95,274 -71,303 23,30 95,-24 71,107 -24,131 65,392 101,440 36,47 173,-6 214,-42 42,-36 30,-280 89,-274 60,6 202,-77 238,-131 36,-53 107,-321 155,-303 48,18 -53,309 -113,440 -59,131 440,226 559,202 119,-24 357,-214 357,-214l47 95 119 36c0,0 -214,155 -249,262 -36,107 285,36 202,71 -83,36 -155,286 -155,286 -369,297 -122,1771 -202,1891 -238,357 131,749 24,892 -107,143 -12,416 -83,535 -165,274 36,440 -24,583 -60,143 -36,333 12,464 47,131 131,238 119,380 -12,143 119,535 119,607 0,71 -36,309 -12,381 24,71 214,60 178,167 -19,57 29,437 89,797l-312 1665z"/>
  <polygon class="fill-w" points="18428,27702 18428,0 25403,0 25403,20750 31728,20750 31728,27702 "/>
  <path class="fill-w" d="M36187 14524l0 4866 -9154 0 0 -19390 9154 0 0 4866 -1160 0c-48,-45 -99,-91 -151,-150 -41,-46 -66,-103 -101,-142 -36,-39 -82,-78 -122,-122 -42,-46 -95,-94 -135,-115 -41,-21 -110,-29 -121,-61 -8,-20 30,-71 34,-101 25,-184 -34,-309 -74,-466 -18,-70 -7,-128 -47,-156 -25,-17 -70,-65 -75,-68 -17,-9 -63,4 -68,-7 -15,-37 71,-43 47,-68 -29,-29 -68,18 -101,14 42,-76 -56,-69 -101,-95 -22,-12 -40,-41 -61,-54 -58,-38 -82,-26 -149,-34 -69,-8 -112,-47 -169,-54 -76,-9 -164,5 -223,20 -20,5 -34,22 -54,27 -29,7 -57,-3 -88,7 -97,31 -187,94 -270,142 -148,86 -316,214 -392,365 -31,62 -62,227 7,270 6,4 66,24 40,-7 -16,-20 -8,-31 -13,-54 -21,-85 -5,-108 34,-41 23,-58 40,-105 81,-81 54,32 -2,97 -14,155 -11,59 7,137 -34,155 -20,10 -125,-80 -155,-108 -13,-12 -84,-132 -122,-115 -52,24 15,128 -20,155 -19,15 -106,-30 -122,-34 -47,-12 -100,-22 -128,-13 -45,13 -73,80 -81,149 -3,24 13,56 7,81 -6,23 -44,44 -54,74 -18,54 13,62 -13,88 -26,25 -115,7 -155,13 -24,4 -51,22 -81,27 -39,7 -80,0 -108,7 -24,6 -46,27 -74,34 -61,15 -135,0 -209,13 -64,12 -123,37 -182,34 -110,-6 -146,-26 -176,13 -32,43 -22,168 -13,250 12,107 23,229 135,223 69,-4 132,-54 223,-47 19,1 42,13 61,13 64,0 152,-36 203,-20 53,17 100,167 128,223 49,97 109,176 142,269l0 312c-58,245 -165,520 -236,757 -38,129 -101,239 -115,378 -12,115 20,207 27,297 5,79 -19,166 -7,236 11,68 65,163 122,189 226,107 429,-125 527,-223 24,-25 50,-63 68,-74 20,-13 52,-7 67,-20 9,-7 28,-42 40,-62l96 0c1,33 -1,74 0,110 4,219 15,413 41,581 30,197 37,374 68,547 10,59 33,116 27,182 -4,38 -27,90 -40,135 -15,50 -26,108 -41,142 -71,166 -228,235 -243,439 -2,33 16,72 7,108 -4,16 -39,51 -54,81 -17,33 -27,77 -41,102 -22,39 -78,77 -108,121 -15,24 -20,53 -34,68 -36,40 -102,68 -149,108 -98,85 -166,172 -243,277 -33,45 -100,102 -121,142 -10,18 -4,46 -14,68 -45,106 -149,192 -155,290 -2,34 24,76 20,115 -5,60 -69,131 -108,189 -89,133 -135,234 -203,392 -30,70 -81,163 -74,230 3,29 34,54 41,95 13,83 -25,218 -41,331 -6,49 0,95 -7,135 -7,40 -66,154 -54,196 18,64 196,73 230,128 23,39 12,248 20,338 38,439 173,844 122,1284 -5,39 -51,271 -74,284 -31,17 -43,-38 -94,-34 -43,4 -129,96 -142,122 -16,32 -1,66 -27,94 -28,31 -94,41 -149,74 -35,21 -104,90 -128,94 -29,5 -64,-18 -95,-13 -38,5 -191,79 -209,101 -9,12 -7,56 -20,68 -7,6 -53,7 -74,13 -54,16 -204,37 -203,108 1,29 94,69 81,88 -14,20 -150,-29 -169,27 -30,90 153,88 169,115l54 20c57,-28 174,3 243,-7 2,0 4,-1 6,-2l1 0 1 -1c17,-11 36,-41 60,-17 4,4 2,9 -4,16l184 -3c22,-30 100,-10 117,-7l0 0c20,3 40,4 61,4l0 0 200 -31c83,-20 160,-40 212,-33l601 -161 273 -63c-6,-5 -13,-10 -23,-12 -40,-9 -51,47 -88,20 -2,-2 -27,-167 -27,-169 0,-18 17,-31 20,-54 1,-10 -14,-24 -13,-40 2,-37 0,-146 -14,-176 -13,-29 -75,-45 -88,-81 -2,-6 -4,-13 -6,-21 3096,0 1233,0 4208,0z"/>
  <polygon class="fill-w" points="42087,9580 37781,0 43113,0 44738,3574 46291,0 51586,0 47418,9532 51854,19390 46516,19390 44767,15539 43083,19390 37781,19390 "/>
  <path class="fill-w" d="M36175 22864l-1314 0 0 -510c0,-238 -17,-390 -50,-456 -33,-65 -90,-97 -169,-97 -85,0 -149,43 -193,132 -44,87 -65,221 -65,399 0,230 24,404 74,520 47,116 181,256 400,421 630,473 1026,861 1190,1164 164,303 246,793 246,1468 0,491 -46,852 -137,1084 -91,232 -266,428 -525,585 -260,157 -562,237 -907,237 -379,0 -702,-92 -969,-273 -268,-181 -444,-412 -527,-692 -83,-282 -124,-679 -124,-1196l0 -450 1313 0 0 838c0,258 19,424 55,498 38,73 103,110 197,110 94,0 164,-46 210,-141 46,-93 69,-232 69,-417 0,-405 -44,-671 -131,-796 -89,-125 -311,-332 -662,-624 -352,-296 -585,-510 -699,-643 -114,-134 -209,-318 -283,-553 -76,-235 -112,-536 -112,-902 0,-527 53,-913 160,-1157 105,-244 278,-434 515,-572 237,-136 524,-206 860,-206 368,0 682,75 940,225 259,151 430,340 515,569 84,228 125,616 125,1163l0 272zm3241 -2083l0 1378 -840 0 0 5508 -1414 0 0 -5508 -838 0 0 -1378 3092 0zm3370 0l0 4602c0,521 -14,888 -40,1099 -28,212 -107,429 -239,650 -133,224 -306,392 -523,507 -216,115 -471,173 -764,173 -326,0 -613,-69 -860,-205 -249,-136 -435,-314 -559,-531 -123,-219 -196,-448 -218,-691 -23,-242 -33,-752 -33,-1530l0 -4074 1415 0 0 5163c0,300 12,494 39,576 25,84 77,127 156,127 90,0 147,-46 173,-138 25,-93 38,-311 38,-653l0 -5074 1416 0zm376 0l1059 0c684,0 1145,39 1386,119 241,80 424,209 550,390 126,181 204,385 236,607 31,222 47,659 47,1312l0 2411c0,618 -23,1031 -70,1240 -46,208 -125,372 -240,489 -115,118 -256,199 -423,247 -169,46 -421,70 -760,70l-1785 0 0 -6886zm1416 1177l0 4530c203,0 329,-51 376,-154 47,-104 70,-386 70,-845l0 -2676c0,-312 -8,-511 -23,-600 -16,-87 -52,-152 -108,-193 -56,-41 -162,-62 -315,-62zm3634 -1177l0 6886 -1416 0 0 -6886 1416 0zm3630 4032c0,692 -12,1182 -38,1469 -27,289 -107,552 -242,790 -135,238 -319,421 -550,549 -231,128 -500,192 -806,192 -291,0 -553,-61 -785,-182 -233,-120 -419,-300 -560,-542 -141,-241 -225,-504 -252,-787 -26,-284 -40,-781 -40,-1489l0 -1178c0,-692 12,-1182 39,-1470 25,-288 105,-550 242,-789 135,-238 318,-421 549,-549 231,-128 499,-192 806,-192 291,0 553,61 785,181 232,120 419,301 560,542 141,241 225,504 251,787 28,284 40,780 40,1489l0 1178zm-1414 -2262c0,-321 -14,-525 -43,-615 -28,-89 -85,-134 -172,-134 -75,0 -131,36 -170,109 -40,71 -60,285 -60,640l0 3214c0,401 14,648 39,740 25,94 86,141 180,141 96,0 157,-54 184,-161 27,-109 40,-364 40,-771l0 -3163z"/>
 </g>
</svg>
