<svg xmlns="http://www.w3.org/2000/svg" viewBox="0 0 992 231"><defs><style>.cls-1{fill:#fff;}</style></defs><title>single-cloud</title><g id="Слой_2" data-name="Слой 2"><g id="Слой_1-2" data-name="Слой 1"><path class="cls-1" d="M900.5,67q-3.74,0-7.4.17C865.38,30.89,808.36,6,742.5,6c-30.42,0-59,5.31-83.59,14.6C642.18,8.07,616,0,586.5,0,558.12,0,532.77,7.49,516,19.23a193.87,193.87,0,0,0-43.49-4.86c-3,0-6,.08-9,.21C447.12,5.54,424.93,0,400.5,0c-26.91,0-51.11,6.73-67.85,17.44C308.12,8.25,279.74,3,249.5,3c-29.84,0-57.87,5.12-82.18,14.08A152.77,152.77,0,0,0,136.5,14C86.93,14,46.57,36.83,45.05,65.33,18.09,74.55,0,91.55,0,111c0,29.27,41,53,91.5,53q3.73,0,7.4-.17C126.62,200.11,183.64,225,249.5,225c30.42,0,58.95-5.31,83.59-14.6C349.82,222.93,376,231,405.5,231c28.38,0,53.73-7.49,70.51-19.23a193.87,193.87,0,0,0,43.49,4.86c3,0,6-.08,9-.21,16.41,9,38.6,14.58,63,14.58,26.91,0,51.11-6.73,67.85-17.44C683.88,222.75,712.26,228,742.5,228c29.84,0,57.87-5.12,82.18-14.08A152.77,152.77,0,0,0,855.5,217c49.57,0,89.93-22.83,91.45-51.33,27-9.22,45-26.22,45-45.67C992,90.73,951,67,900.5,67Z"/></g></g></svg>