<svg xmlns="http://www.w3.org/2000/svg" viewBox="0 0 1920 216"><defs><style>.cls-1{opacity:0.3;}.cls-2{fill:#999;}.cls-3{fill:#fff;}</style></defs><title>cloud</title><g id="Слой_2" data-name="Слой 2"><g id="Слой_1-2" data-name="Слой 1"><g class="cls-1"><path class="cls-2" d="M133.15,141.19c22.36,43.89,76,74.81,138.56,74.81,56,0,104.79-24.74,130.47-61.37,19.25,10.53,42.5,16.69,67.53,16.69,53.28,0,98.45-27.88,114.26-66.5A102.38,102.38,0,0,0,626.71,114c37.36,0,69.17-19.11,81.17-45.85a73.46,73.46,0,0,0,32.83,7.53c22.07,0,41.44-9.24,52.5-23.17,11.07,13.93,30.44,23.17,52.5,23.17,16.12,0,30.81-4.93,41.87-13,14.78,19.61,41.55,32.72,72.13,32.72,30.24,0,56.75-12.83,71.63-32.08,11,7.7,25.26,12.37,41,12.37,22.06,0,41.43-9.24,52.5-23.17,11.06,13.93,30.43,23.17,52.5,23.17a73.46,73.46,0,0,0,32.83-7.53c12,26.74,43.81,45.85,81.17,45.85a102.38,102.38,0,0,0,42.74-9.13c15.81,38.62,61,66.5,114.26,66.5,25,0,48.28-6.16,67.53-16.69C1541.5,191.26,1590.3,216,1646.29,216c62.59,0,116.2-30.92,138.56-74.81A116.75,116.75,0,0,0,1840.5,155c31.83,0,60.33-12.26,79.5-31.59V9H0V125.37C19.12,143.57,46.76,155,77.5,155A116.75,116.75,0,0,0,133.15,141.19Z"/></g><path class="cls-3" d="M133.15,132.19c22.36,43.89,76,74.81,138.56,74.81,56,0,104.79-24.74,130.47-61.37,19.25,10.53,42.5,16.69,67.53,16.69,53.28,0,98.45-27.88,114.26-66.5A102.38,102.38,0,0,0,626.71,105c37.36,0,69.17-19.11,81.17-45.85a73.46,73.46,0,0,0,32.83,7.53c22.07,0,41.44-9.24,52.5-23.17,11.07,13.93,30.44,23.17,52.5,23.17,16.12,0,30.81-4.93,41.87-13,14.78,19.61,41.55,32.72,72.13,32.72,30.24,0,56.75-12.83,71.63-32.08,11,7.7,25.26,12.37,41,12.37,22.06,0,41.43-9.24,52.5-23.17,11.06,13.93,30.43,23.17,52.5,23.17a73.46,73.46,0,0,0,32.83-7.53c12,26.74,43.81,45.85,81.17,45.85A102.38,102.38,0,0,0,1334,95.82c15.81,38.62,61,66.5,114.26,66.5,25,0,48.28-6.16,67.53-16.69C1541.5,182.26,1590.3,207,1646.29,207c62.59,0,116.2-30.92,138.56-74.81A116.75,116.75,0,0,0,1840.5,146c31.83,0,60.33-12.26,79.5-31.59V0H0V116.37C19.12,134.57,46.76,146,77.5,146A116.75,116.75,0,0,0,133.15,132.19Z"/></g></g></svg>